REM DIRINDEX 1\2\3,1\2\4,1\2\5,1\2\6
REM DIRNAME cjc157,folder01,folder02,folder03,folder04,folder05
TITLE ""
FILE "099 099.mp3" MP3
  TRACK 01 AUDIO
    TITLE "0:"
    INDEX 01 00:00:00
  TRACK 02 AUDIO
    TITLE "3:cjc157_3733"
    INDEX 01 00:00:09
  TRACK 03 AUDIO
    TITLE "0:"
    INDEX 01 00:01:30
  TRACK 04 AUDIO
    TITLE "4:cjc157_3734"
    INDEX 01 00:02:00
  TRACK 05 AUDIO
    TITLE "0:"
    INDEX 01 00:03:17
  TRACK 06 AUDIO
    TITLE "5:cjc157_3735"
    INDEX 01 00:03:63
  TRACK 07 AUDIO
    TITLE "0:"
    INDEX 01 00:06:06
  TRACK 08 AUDIO
    TITLE "3:cjc157_3736"
    INDEX 01 00:06:53
  TRACK 09 AUDIO
    TITLE "0:"
    INDEX 01 00:07:66
  TRACK 10 AUDIO
    TITLE "4:cjc157_3737"
    INDEX 01 00:08:36
  TRACK 11 AUDIO
    TITLE "0:"
    INDEX 01 00:09:49
  TRACK 12 AUDIO
    TITLE "5:cjc157_3738"
    INDEX 01 00:10:21
  TRACK 13 AUDIO
    TITLE "0:"
    INDEX 01 00:12:20
  TRACK 14 AUDIO
    TITLE "3:cjc157_3739"
    INDEX 01 00:12:65
  TRACK 15 AUDIO
    TITLE "0:"
    INDEX 01 00:14:25
  TRACK 16 AUDIO
    TITLE "4:cjc157_3740"
    INDEX 01 00:15:01
  TRACK 17 AUDIO
    TITLE "0:"
    INDEX 01 00:16:14
  TRACK 18 AUDIO
    TITLE "5:cjc157_3741"
    INDEX 01 00:16:57
  TRACK 19 AUDIO
    TITLE "0:"
    INDEX 01 00:19:22
  TRACK 20 AUDIO
    TITLE "5:cjc157_3742"
    INDEX 01 00:19:62
  TRACK 21 AUDIO
    TITLE "0:"
    INDEX 01 00:21:49
  TRACK 22 AUDIO
    TITLE "3:cjc157_3743"
    INDEX 01 00:22:15
  TRACK 23 AUDIO
    TITLE "0:"
    INDEX 01 00:23:40
  TRACK 24 AUDIO
    TITLE "4:cjc157_3744"
    INDEX 01 00:24:12
  TRACK 25 AUDIO
    TITLE "0:"
    INDEX 01 00:25:31
  TRACK 26 AUDIO
    TITLE "5:cjc157_3745"
    INDEX 01 00:26:03
  TRACK 27 AUDIO
    TITLE "0:"
    INDEX 01 00:28:72
  TRACK 28 AUDIO
    TITLE "5:cjc157_3746"
    INDEX 01 00:29:40
  TRACK 29 AUDIO
    TITLE "0:"
    INDEX 01 00:32:54
  TRACK 30 AUDIO
    TITLE "3:cjc157_3747"
    INDEX 01 00:33:22
  TRACK 31 AUDIO
    TITLE "0:"
    INDEX 01 00:34:51
  TRACK 32 AUDIO
    TITLE "4:cjc157_3748"
    INDEX 01 00:35:23
  TRACK 33 AUDIO
    TITLE "0:"
    INDEX 01 00:36:38
  TRACK 34 AUDIO
    TITLE "5:cjc157_3749"
    INDEX 01 00:37:10
  TRACK 35 AUDIO
    TITLE "0:"
    INDEX 01 00:39:51
  TRACK 36 AUDIO
    TITLE "5:cjc157_3750"
    INDEX 01 00:40:23
  TRACK 37 AUDIO
    TITLE "0:"
    INDEX 01 00:43:42
  TRACK 38 AUDIO
    TITLE "3:cjc157_3751"
    INDEX 01 00:44:12
  TRACK 39 AUDIO
    TITLE "0:"
    INDEX 01 00:45:18
  TRACK 40 AUDIO
    TITLE "4:cjc157_3752"
    INDEX 01 00:45:65
  TRACK 41 AUDIO
    TITLE "0:"
    INDEX 01 00:46:74
  TRACK 42 AUDIO
    TITLE "5:cjc157_3753"
    INDEX 01 00:47:46
  TRACK 43 AUDIO
    TITLE "0:"
    INDEX 01 00:49:49
  TRACK 44 AUDIO
    TITLE "3:cjc157_3754"
    INDEX 01 00:50:15
  TRACK 45 AUDIO
    TITLE "0:"
    INDEX 01 00:51:18
  TRACK 46 AUDIO
    TITLE "4:cjc157_3755"
    INDEX 01 00:51:62
  TRACK 47 AUDIO
    TITLE "0:"
    INDEX 01 00:53:04
  TRACK 48 AUDIO
    TITLE "5:cjc157_3756"
    INDEX 01 00:53:47
  TRACK 49 AUDIO
    TITLE "0:"
    INDEX 01 00:56:53
  TRACK 50 AUDIO
    TITLE "3:cjc157_3757"
    INDEX 01 00:57:25
  TRACK 51 AUDIO
    TITLE "0:"
    INDEX 01 00:58:24
  TRACK 52 AUDIO
    TITLE "4:cjc157_3758"
    INDEX 01 00:58:66
  TRACK 53 AUDIO
    TITLE "0:"
    INDEX 01 01:00:04
  TRACK 54 AUDIO
    TITLE "5:cjc157_3759"
    INDEX 01 01:00:51
  TRACK 55 AUDIO
    TITLE "0:"
    INDEX 01 01:02:24
  TRACK 56 AUDIO
    TITLE "5:cjc157_3760"
    INDEX 01 01:03:04
  TRACK 57 AUDIO
    TITLE "0:"
    INDEX 01 01:04:43
  TRACK 58 AUDIO
    TITLE "3:cjc157_3761"
    INDEX 01 01:05:13
  TRACK 59 AUDIO
    TITLE "0:"
    INDEX 01 01:06:38
  TRACK 60 AUDIO
    TITLE "4:cjc157_3762"
    INDEX 01 01:07:04
  TRACK 61 AUDIO
    TITLE "0:"
    INDEX 01 01:08:27
  TRACK 62 AUDIO
    TITLE "5:cjc157_3763"
    INDEX 01 01:09:03
  TRACK 63 AUDIO
    TITLE "0:"
    INDEX 01 01:11:51
  TRACK 64 AUDIO
    TITLE "5:cjc157_3764"
    INDEX 01 01:12:17
  TRACK 65 AUDIO
    TITLE "0:"
    INDEX 01 01:15:21
  TRACK 66 AUDIO
    TITLE "3:cjc157_3765"
    INDEX 01 01:15:66
  TRACK 67 AUDIO
    TITLE "0:"
    INDEX 01 01:16:73
  TRACK 68 AUDIO
    TITLE "4:cjc157_3766"
    INDEX 01 01:17:45
  TRACK 69 AUDIO
    TITLE "0:"
    INDEX 01 01:18:49
  TRACK 70 AUDIO
    TITLE "5:cjc157_3767"
    INDEX 01 01:19:19
  TRACK 71 AUDIO
    TITLE "0:"
    INDEX 01 01:21:29
  TRACK 72 AUDIO
    TITLE "5:cjc157_3768"
    INDEX 01 01:22:01
  TRACK 73 AUDIO
    TITLE "0:"
    INDEX 01 01:23:71
